<?xml version="1.0" standalone="no"?>
<!DOCTYPE svg PUBLIC "-//W3C//DTD SVG 20010904//EN"
 "http://www.w3.org/TR/2001/REC-SVG-20010904/DTD/svg10.dtd">
<svg version="1.0" xmlns="http://www.w3.org/2000/svg"
 width="999.000000pt" height="999.000000pt" viewBox="0 0 999.000000 999.000000"
 preserveAspectRatio="xMidYMid meet">
<metadata>
Created by potrace 1.14, written by Peter Selinger 2001-2017
</metadata>
<g transform="translate(0.000000,999.000000) scale(0.100000,-0.100000)"
fill="#000000" stroke="none">
<path d="M3243 9979 c-36 -12 -36 -70 0 -86 12 -5 175 -9 365 -8 224 0 342 -3
343 -10 1 -5 2 -798 3 -1762 l1 -1752 -60 -22 c-33 -13 -64 -24 -70 -25 -46
-10 -324 -142 -443 -211 -53 -31 -109 -63 -124 -70 -16 -8 -28 -19 -28 -24 0
-5 -6 -9 -14 -9 -8 0 -21 -6 -28 -13 -7 -7 -26 -21 -43 -31 -16 -11 -34 -23
-40 -28 -5 -4 -37 -28 -70 -53 -87 -65 -107 -81 -132 -104 -12 -12 -27 -21
-33 -21 -5 0 -10 -7 -10 -15 0 -8 -4 -15 -9 -15 -8 0 -44 -31 -131 -114 -28
-26 -133 -137 -214 -226 -7 -8 -48 -60 -90 -115 -42 -55 -80 -104 -84 -110
-82 -107 -272 -443 -322 -570 -4 -11 -16 -38 -25 -60 -10 -22 -23 -53 -30 -70
-7 -16 -21 -52 -30 -80 -10 -27 -20 -57 -23 -65 -3 -8 -6 -17 -7 -20 0 -3 -9
-32 -20 -65 -10 -33 -19 -64 -21 -70 -1 -5 -9 -35 -18 -65 -8 -30 -17 -66 -20
-80 -3 -14 -7 -36 -10 -50 -3 -14 -9 -41 -12 -60 -8 -41 -10 -56 -25 -133 -5
-33 -12 -75 -14 -95 -2 -21 -7 -71 -12 -112 -9 -84 -9 -515 1 -600 11 -101 20
-170 31 -230 4 -19 10 -55 15 -80 4 -25 11 -56 14 -70 11 -50 30 -135 30 -142
1 -3 4 -10 8 -14 5 -4 8 -15 8 -24 0 -35 91 -297 141 -408 16 -35 29 -66 29
-70 0 -10 58 -123 71 -139 6 -7 8 -13 5 -13 -4 0 2 -13 13 -29 12 -16 21 -33
21 -37 0 -33 253 -408 354 -525 17 -19 51 -59 76 -88 71 -82 242 -249 331
-321 23 -19 50 -43 60 -53 11 -9 22 -17 25 -17 3 0 11 -6 19 -13 42 -39 195
-146 280 -195 33 -20 62 -38 65 -42 3 -4 15 -10 28 -14 12 -4 22 -12 22 -17 0
-5 9 -9 19 -9 11 0 22 -4 25 -8 4 -8 193 -106 206 -107 3 0 21 -8 40 -17 65
-29 105 -45 180 -72 41 -15 91 -33 110 -41 19 -7 64 -21 100 -30 36 -10 76
-21 90 -25 25 -9 157 -39 195 -46 11 -2 34 -6 50 -9 37 -8 68 -13 120 -20 22
-3 50 -7 63 -10 100 -19 566 -27 712 -11 100 10 143 16 170 21 14 2 42 7 62
10 21 2 81 15 135 26 54 12 105 23 113 23 9 1 20 5 26 9 6 3 24 9 41 11 16 3
48 12 71 20 23 8 42 13 42 9 0 -3 6 -1 13 4 6 6 37 18 67 27 30 9 64 21 75 26
11 5 46 18 78 29 97 35 326 145 438 212 54 31 235 147 254 161 6 5 44 34 85
66 42 31 82 63 90 69 205 174 329 298 470 472 19 24 47 58 63 76 15 18 27 37
27 43 0 6 4 12 8 14 17 7 126 175 235 363 40 68 120 241 167 360 32 81 96 270
105 309 2 12 12 48 21 81 20 75 25 96 44 190 18 91 21 110 25 148 3 20 7 56
10 80 16 129 19 192 20 392 0 228 -6 326 -31 480 -2 17 -6 42 -9 57 -2 14 -11
62 -20 105 -9 43 -19 89 -22 103 -2 14 -15 66 -29 115 -14 50 -27 97 -29 105
-8 29 -80 228 -96 265 -52 121 -150 327 -160 335 -3 3 -12 20 -20 38 -8 17
-17 32 -21 32 -5 0 -8 5 -8 11 0 12 -101 173 -112 177 -5 2 -8 8 -8 13 0 9
-28 53 -55 86 -5 7 -26 33 -45 59 -141 186 -392 447 -527 546 -24 17 -43 35
-43 40 0 4 -6 8 -14 8 -8 0 -16 3 -18 8 -5 11 -130 101 -228 165 -114 73 -191
116 -340 188 -69 33 -138 66 -153 74 -16 8 -32 15 -37 15 -5 0 -21 5 -37 12
-15 6 -30 12 -33 13 -3 1 -18 7 -33 13 -16 7 -32 12 -37 12 -4 0 -19 6 -32 13
l-24 12 0 1758 c0 1210 3 1757 11 1758 5 1 161 2 345 3 310 2 379 6 381 24 0
4 2 15 4 24 2 9 -3 25 -10 35 -13 17 -87 18 -1760 18 -960 0 -1753 -3 -1762
-6z m2682 -98 c7 -1 10 -597 9 -1768 -1 -973 -2 -1773 -3 -1778 -1 -7 -305
-10 -933 -9 -513 1 -935 2 -938 3 -8 2 -6 3545 1 3551 6 4 1831 5 1864 1z"/>
</g>
</svg>
